<?xml version="1.0" encoding="UTF-8" standalone="no"?>
<svg
   inkscape:version="1.1 (c4e8f9ed74, 2021-05-24)"
   sodipodi:docname="hide-inactive.svg"
   id="svg12"
   version="1.1"
   viewBox="0 0 34 34"
   height="34"
   width="34"
   xmlns:inkscape="http://www.inkscape.org/namespaces/inkscape"
   xmlns:sodipodi="http://sodipodi.sourceforge.net/DTD/sodipodi-0.dtd"
   xmlns="http://www.w3.org/2000/svg"
   xmlns:svg="http://www.w3.org/2000/svg"
   xmlns:rdf="http://www.w3.org/1999/02/22-rdf-syntax-ns#"
   xmlns:cc="http://creativecommons.org/ns#"
   xmlns:dc="http://purl.org/dc/elements/1.1/">
  <metadata
     id="metadata18">
    <rdf:RDF>
      <cc:Work
         rdf:about="">
        <dc:format>image/svg+xml</dc:format>
        <dc:type
           rdf:resource="http://purl.org/dc/dcmitype/StillImage" />
      </cc:Work>
    </rdf:RDF>
  </metadata>
  <defs
     id="defs16" />
  <sodipodi:namedview
     inkscape:document-rotation="0"
     inkscape:current-layer="svg12"
     inkscape:window-maximized="1"
     inkscape:window-y="27"
     inkscape:window-x="0"
     inkscape:cy="28.067797"
     inkscape:cx="-2.2372881"
     inkscape:zoom="7.375"
     showgrid="false"
     id="namedview14"
     inkscape:window-height="1017"
     inkscape:window-width="1920"
     inkscape:pageshadow="2"
     inkscape:pageopacity="0"
     guidetolerance="10"
     gridtolerance="10"
     objecttolerance="10"
     borderopacity="1"
     bordercolor="#666666"
     pagecolor="#ffffff"
     inkscape:pagecheckerboard="0" />
  <rect
     style="fill:#333333;fill-opacity:1;stroke-width:1.12501"
     id="rect2"
     fill="#E0E0E0"
     height="36"
     width="36"
     x="-1"
     y="-1" />
  <circle
     style="fill:#28ca42;fill-opacity:1;stroke-width:0.409785;opacity:0.5"
     id="path845"
     cx="17"
     cy="17"
     r="10" />
  <path
     id="path1185"
     style="opacity:0.3;fill:#000000;fill-opacity:1;stroke-width:0.409785"
     d="M 17,6.9999999 A 9.9999999,9.9999999 0 0 0 6.9999997,17.000001 9.9999999,9.9999999 0 0 0 17,27.000001 a 9.9999999,9.9999999 0 0 0 10,-10 A 9.9999999,9.9999999 0 0 0 17,6.9999999 Z m 0,0.909091 a 9.090909,9.090909 0 0 1 0.445667,0.010654 9.090909,9.090909 0 0 1 0.445668,0.033736 9.090909,9.090909 0 0 1 0.442117,0.053267 9.090909,9.090909 0 0 1 0.440341,0.076349 9.090909,9.090909 0 0 1 0.435014,0.097656 9.090909,9.090909 0 0 1 0.429687,0.1189631 9.090909,9.090909 0 0 1 0.424361,0.1402699 9.090909,9.090909 0 0 1 0.415483,0.1615767 9.090909,9.090909 0 0 1 0.408381,0.1811079 9.090909,9.090909 0 0 1 0.399503,0.2006392 9.090909,9.090909 0 0 1 0.387073,0.2183949 9.090909,9.090909 0 0 1 0.378197,0.2397018 9.090909,9.090909 0 0 1 0.36399,0.2574579 9.090909,9.090909 0 0 1 0.351563,0.273437 9.090909,9.090909 0 0 1 0.337358,0.2911937 9.090909,9.090909 0 0 1 0.323153,0.308949 9.090909,9.090909 0 0 1 0.308949,0.323153 9.090909,9.090909 0 0 1 0.291194,0.337358 9.090909,9.090909 0 0 1 0.273437,0.351563 9.090909,9.090909 0 0 1 0.257457,0.363991 9.090909,9.090909 0 0 1 0.239702,0.378196 9.090909,9.090909 0 0 1 0.218395,0.387074 9.090909,9.090909 0 0 1 0.200639,0.399503 9.090909,9.090909 0 0 1 0.181108,0.408381 9.090909,9.090909 0 0 1 0.161577,0.415482 9.090909,9.090909 0 0 1 0.140269,0.424361 9.090909,9.090909 0 0 1 0.118964,0.429688 9.090909,9.090909 0 0 1 0.09766,0.435014 9.090909,9.090909 0 0 1 0.07635,0.440341 9.090909,9.090909 0 0 1 0.05326,0.442116 9.090909,9.090909 0 0 1 0.03374,0.445669 9.090909,9.090909 0 0 1 0.01066,0.445667 9.090909,9.090909 0 0 1 -0.09233,1.294389 9.090909,9.090909 0 0 1 -0.275213,1.26598 9.090909,9.090909 0 0 1 -0.454546,1.216264 9.090909,9.090909 0 0 1 -0.621449,1.138139 9.090909,9.090909 0 0 1 -0.777698,1.038708 9.090909,9.090909 0 0 1 -0.916194,0.916193 9.090909,9.090909 0 0 1 -1.038707,0.777699 9.090909,9.090909 0 0 1 -1.138139,0.621449 9.090909,9.090909 0 0 1 -1.216264,0.454545 9.090909,9.090909 0 0 1 -1.26598,0.275214 9.090909,9.090909 0 0 1 -1.29439,0.09233 9.090909,9.090909 0 0 1 -1.294389,-0.09233 9.090909,9.090909 0 0 1 -1.26598,-0.275214 9.090909,9.090909 0 0 1 -1.216264,-0.454545 9.090909,9.090909 0 0 1 -1.138139,-0.621449 9.090909,9.090909 0 0 1 -1.038707,-0.777699 9.090909,9.090909 0 0 1 -0.916194,-0.916193 9.090909,9.090909 0 0 1 -0.7776983,-1.038708 9.090909,9.090909 0 0 1 -0.621449,-1.138139 9.090909,9.090909 0 0 1 -0.454546,-1.216264 9.090909,9.090909 0 0 1 -0.275213,-1.26598 9.090909,9.090909 0 0 1 -0.09233,-1.294389 9.090909,9.090909 0 0 1 0.09233,-1.294389 9.090909,9.090909 0 0 1 0.275213,-1.26598 9.090909,9.090909 0 0 1 0.454546,-1.216265 9.090909,9.090909 0 0 1 0.621449,-1.138139 9.090909,9.090909 0 0 1 0.7776983,-1.038707 9.090909,9.090909 0 0 1 0.916194,-0.916194 9.090909,9.090909 0 0 1 1.038707,-0.7776989 9.090909,9.090909 0 0 1 1.138139,-0.6214488 9.090909,9.090909 0 0 1 1.216264,-0.4545455 9.090909,9.090909 0 0 1 1.26598,-0.2752131 9.090909,9.090909 0 0 1 1.294389,-0.092329 z" />
</svg>
