<?xml version="1.0" encoding="UTF-8" standalone="no"?>
<svg
   height="32"
   width="32"
   version="1.1"
   id="svg25"
   sodipodi:docname="titlebutton-maximize-backdrop.svg"
   inkscape:version="1.1.2 (0a00cf5339, 2022-02-04, custom)"
   xmlns:inkscape="http://www.inkscape.org/namespaces/inkscape"
   xmlns:sodipodi="http://sodipodi.sourceforge.net/DTD/sodipodi-0.dtd"
   xmlns="http://www.w3.org/2000/svg"
   xmlns:svg="http://www.w3.org/2000/svg"
   xmlns:rdf="http://www.w3.org/1999/02/22-rdf-syntax-ns#"
   xmlns:cc="http://creativecommons.org/ns#"
   xmlns:dc="http://purl.org/dc/elements/1.1/">
  <metadata
     id="metadata29">
    <rdf:RDF>
      <cc:Work
         rdf:about="">
        <dc:format>image/svg+xml</dc:format>
        <dc:type
           rdf:resource="http://purl.org/dc/dcmitype/StillImage" />
      </cc:Work>
    </rdf:RDF>
  </metadata>
  <sodipodi:namedview
     pagecolor="#ffffff"
     bordercolor="#666666"
     borderopacity="1"
     objecttolerance="10"
     gridtolerance="10"
     guidetolerance="10"
     inkscape:pageopacity="0"
     inkscape:pageshadow="2"
     inkscape:window-width="1920"
     inkscape:window-height="1017"
     id="namedview27"
     showgrid="false"
     inkscape:zoom="14.75"
     inkscape:cx="7.7966102"
     inkscape:cy="19.59322"
     inkscape:current-layer="svg25"
     inkscape:document-rotation="0"
     inkscape:window-x="0"
     inkscape:window-y="24"
     inkscape:window-maximized="1"
     inkscape:pagecheckerboard="0" />
  <defs
     id="defs13">
    <filter
       id="b"
       width="1.426"
       y="-.21306"
       x="-.21298"
       height="1.4261"
       color-interpolation-filters="sRGB">
      <feGaussianBlur
         stdDeviation="0.71020915"
         id="feGaussianBlur2" />
    </filter>
    <radialGradient
       id="d"
       gradientUnits="userSpaceOnUse"
       cy="5.8191"
       cx="7.6583"
       gradientTransform="matrix(1.4402,0,0,1.4461,4.971,1.4209)"
       r="8.6929">
      <stop
         stop-color="#7b7b7b"
         offset="0"
         id="stop5" />
      <stop
         stop-color="#101010"
         offset="1"
         id="stop7" />
    </radialGradient>
    <filter
       id="filter4202"
       style="color-interpolation-filters:sRGB"
       height="1.336"
       width="1.336"
       y="-0.168"
       x="-0.168">
      <feGaussianBlur
         stdDeviation="1.64206"
         id="feGaussianBlur10" />
    </filter>
  </defs>
  <rect
     style="opacity:0.5;fill:#28ca42;stroke-width:0.609038;fill-opacity:1"
     id="rect931"
     width="18"
     height="18"
     x="7"
     y="7"
     rx="9"
     ry="9" />
  <path
     id="path1361"
     style="fill:#000000;stroke-width:0.609038;opacity:0.15"
     d="m 16,7 c -4.986,0 -9,4.014 -9,9 0,4.986 4.014,9 9,9 4.986,0 9,-4.014 9,-9 0,-4.986 -4.014,-9 -9,-9 z m 0,1 c 0.1385,0 0.275379,0.00288 0.412109,0.00977 0.13673,0.00689 0.273409,0.017643 0.408203,0.03125 0.134795,0.013607 0.267696,0.030618 0.400391,0.050781 0.132695,0.020163 0.266055,0.043758 0.396485,0.070312 0.130429,0.026555 0.258719,0.057063 0.386718,0.089844 0.128,0.032781 0.255455,0.06858 0.38086,0.1074219 0.125404,0.038842 0.248449,0.080262 0.371093,0.125 0.122644,0.044738 0.243563,0.092109 0.363282,0.1425781 0.119718,0.050469 0.23884,0.1041216 0.355468,0.1601563 0.116629,0.056035 0.23233,0.1143457 0.345703,0.1757812 0.113374,0.061436 0.224032,0.1247349 0.333985,0.1914063 0.109953,0.066671 0.217851,0.1372422 0.324219,0.2089843 0.106367,0.071742 0.211836,0.1460084 0.314453,0.2226563 0.102616,0.076648 0.20208,0.1549395 0.300781,0.2363281 0.0987,0.081389 0.196395,0.1659888 0.291016,0.2519535 0.09462,0.08596 0.186968,0.173297 0.277343,0.263672 0.09037,0.09037 0.177708,0.182723 0.263672,0.277343 0.08596,0.09462 0.170565,0.192315 0.251953,0.291016 0.08139,0.0987 0.159681,0.198165 0.236328,0.300781 0.07665,0.102617 0.150915,0.208086 0.222657,0.314453 0.07174,0.106368 0.142313,0.214266 0.208984,0.324219 0.06667,0.109953 0.129971,0.220611 0.191406,0.333985 0.06144,0.113373 0.119747,0.229074 0.175782,0.345703 0.05603,0.116628 0.109687,0.23575 0.160156,0.355468 0.05047,0.119719 0.09784,0.240638 0.142578,0.363282 0.04474,0.122644 0.08616,0.245689 0.125,0.371093 0.03884,0.125405 0.07464,0.25286 0.107422,0.38086 0.03278,0.127999 0.06329,0.256289 0.08984,0.386718 0.02655,0.13043 0.05015,0.26379 0.07031,0.396485 0.02016,0.132695 0.03717,0.265596 0.05078,0.400391 0.01361,0.134794 0.02436,0.271473 0.03125,0.408203 0.0069,0.136726 0.0098,0.273605 0.0098,0.412105 0,0.1385 -0.0029,0.275379 -0.0098,0.412109 -0.0069,0.13673 -0.01764,0.273409 -0.03125,0.408203 -0.01361,0.134795 -0.03062,0.267696 -0.05078,0.400391 -0.02016,0.132695 -0.04376,0.266055 -0.07031,0.396485 -0.02655,0.130429 -0.05706,0.258719 -0.08984,0.386718 -0.03278,0.128 -0.06858,0.255455 -0.107422,0.38086 -0.03884,0.125404 -0.08026,0.248449 -0.125,0.371093 -0.04474,0.122644 -0.09211,0.243563 -0.142578,0.363282 -0.05047,0.119718 -0.104122,0.23884 -0.160156,0.355468 -0.05603,0.116629 -0.114346,0.23233 -0.175782,0.345703 -0.06143,0.113374 -0.124734,0.224032 -0.191406,0.333985 -0.06667,0.109953 -0.137242,0.217851 -0.208984,0.324219 -0.07174,0.106367 -0.146009,0.211836 -0.222657,0.314453 -0.07665,0.102616 -0.154939,0.20208 -0.236328,0.300781 -0.08139,0.0987 -0.165988,0.196395 -0.251953,0.291016 -0.08596,0.09462 -0.173297,0.186968 -0.263672,0.277343 -0.09038,0.09037 -0.182723,0.177708 -0.277343,0.263672 -0.09462,0.08596 -0.192315,0.170565 -0.291016,0.251953 -0.0987,0.08139 -0.198165,0.159681 -0.300781,0.236328 -0.102617,0.07665 -0.208086,0.150915 -0.314453,0.222657 -0.106368,0.07174 -0.214266,0.142313 -0.324219,0.208984 -0.109953,0.06667 -0.220611,0.129971 -0.333985,0.191406 -0.113373,0.06144 -0.229074,0.119747 -0.345703,0.175782 -0.116628,0.05603 -0.23575,0.109687 -0.355468,0.160156 -0.119719,0.05047 -0.240638,0.09784 -0.363282,0.142578 -0.122644,0.04474 -0.245689,0.08616 -0.371093,0.125 -0.125405,0.03884 -0.25286,0.07464 -0.38086,0.107422 -0.127999,0.03278 -0.256289,0.06329 -0.386718,0.08984 -0.13043,0.02655 -0.26379,0.05015 -0.396485,0.07031 -0.132695,0.02016 -0.265596,0.03717 -0.400391,0.05078 -0.134794,0.01361 -0.271473,0.02436 -0.408203,0.03125 -0.136703,0.0069 -0.273582,0.0098 -0.412082,0.0098 -0.1385,0 -0.275379,-0.0029 -0.412109,-0.0098 -0.13673,-0.0069 -0.273409,-0.01764 -0.408203,-0.03125 -0.134795,-0.01361 -0.267696,-0.03062 -0.400391,-0.05078 -0.132695,-0.02016 -0.266055,-0.04376 -0.396485,-0.07031 -0.130429,-0.02655 -0.258719,-0.05706 -0.386718,-0.08984 -0.128,-0.03278 -0.255455,-0.06858 -0.38086,-0.107422 -0.125404,-0.03884 -0.248449,-0.08026 -0.371093,-0.125 -0.122644,-0.04474 -0.243563,-0.09211 -0.363282,-0.142578 -0.119718,-0.05047 -0.23884,-0.104122 -0.355468,-0.160156 -0.116629,-0.05603 -0.23233,-0.114346 -0.345703,-0.175782 -0.113401,-0.06146 -0.224059,-0.124761 -0.334012,-0.191433 -0.109953,-0.06667 -0.217851,-0.137242 -0.324219,-0.208984 -0.106367,-0.07174 -0.211836,-0.146009 -0.314453,-0.222657 -0.102616,-0.07665 -0.20208,-0.154939 -0.300781,-0.236328 -0.0987,-0.08139 -0.196395,-0.165988 -0.291016,-0.251953 -0.09462,-0.08596 -0.186968,-0.173297 -0.277343,-0.263672 -0.09038,-0.09038 -0.177708,-0.182723 -0.263672,-0.277343 C 9.988255,21.290145 9.903654,21.192451 9.822266,21.09375 9.740877,20.995049 9.662585,20.895585 9.585938,20.792969 9.50929,20.690352 9.435023,20.584883 9.363281,20.478516 9.291539,20.372148 9.220968,20.26425 9.154297,20.154297 9.087626,20.044344 9.024326,19.933686 8.962891,19.820312 8.901455,19.706939 8.843144,19.591238 8.787109,19.474609 8.731075,19.357981 8.677422,19.238859 8.626953,19.119141 8.576484,18.999422 8.529113,18.878503 8.484375,18.755859 8.439637,18.633215 8.398217,18.51017 8.359375,18.384766 8.320533,18.259361 8.284734,18.131906 8.251953,18.003906 8.219172,17.875907 8.188664,17.747617 8.162109,17.617188 8.135559,17.486758 8.111959,17.353398 8.091799,17.220703 8.071639,17.088008 8.054629,16.955107 8.041019,16.820312 8.027409,16.685518 8.016659,16.548839 8.009769,16.412109 8.002869,16.275379 7.999969,16.1385 7.999969,16 c 0,-0.1385 0.0029,-0.275379 0.0098,-0.412109 0.0069,-0.13673 0.01764,-0.273409 0.03125,-0.408203 0.01361,-0.134795 0.03062,-0.267696 0.05078,-0.400391 0.02016,-0.132695 0.04376,-0.266055 0.07031,-0.396485 0.02656,-0.130429 0.05706,-0.258719 0.08984,-0.386718 0.03278,-0.128 0.06858,-0.255455 0.107422,-0.38086 0.03884,-0.125404 0.08026,-0.248449 0.125,-0.371093 0.04474,-0.122644 0.09211,-0.243563 0.142578,-0.363282 0.05047,-0.119718 0.104122,-0.23884 0.160156,-0.355468 0.05604,-0.116629 0.114346,-0.23233 0.175782,-0.345703 0.06144,-0.113374 0.124734,-0.224032 0.191406,-0.333985 0.06667,-0.109953 0.137242,-0.217851 0.208984,-0.324219 0.07174,-0.106367 0.146009,-0.211836 0.222657,-0.314453 0.07665,-0.102616 0.154939,-0.20208 0.236328,-0.300781 0.08139,-0.0987 0.165988,-0.196395 0.251953,-0.291016 0.08596,-0.09462 0.173297,-0.186968 0.263672,-0.277343 0.09037,-0.09038 0.182723,-0.177708 0.277343,-0.263672 0.09462,-0.085965 0.192315,-0.1705647 0.291016,-0.2519534 0.0987,-0.081389 0.198165,-0.1596802 0.300781,-0.2363281 0.102617,-0.076648 0.208086,-0.1509141 0.314453,-0.2226563 0.106368,-0.071742 0.214266,-0.1423129 0.324219,-0.2089843 0.109953,-0.066671 0.220611,-0.1299707 0.333985,-0.1914063 0.113373,-0.061435 0.229074,-0.1197466 0.345703,-0.1757812 0.116628,-0.056035 0.23575,-0.1096875 0.355468,-0.1601563 0.119719,-0.050469 0.240638,-0.09784 0.363282,-0.1425781 0.122644,-0.044738 0.245689,-0.086158 0.371093,-0.125 0.125405,-0.038842 0.25286,-0.074641 0.38086,-0.1074219 0.127999,-0.032781 0.256289,-0.063289 0.386718,-0.089844 0.13043,-0.026555 0.26379,-0.050149 0.396485,-0.070312 0.132695,-0.020164 0.265596,-0.037174 0.400391,-0.050781 0.134794,-0.013607 0.271473,-0.024364 0.408203,-0.03125 0.136726,-0.00689 0.273605,-0.00977 0.412105,-0.00977 z" />
</svg>
