<?xml version="1.0" encoding="UTF-8" standalone="no"?>
<svg
   width="24"
   height="24"
   viewBox="0 0 24 24"
   version="1.1"
   id="svg4"
   sodipodi:docname="close.svg"
   inkscape:version="1.1 (c4e8f9ed74, 2021-05-24)"
   xmlns:inkscape="http://www.inkscape.org/namespaces/inkscape"
   xmlns:sodipodi="http://sodipodi.sourceforge.net/DTD/sodipodi-0.dtd"
   xmlns="http://www.w3.org/2000/svg"
   xmlns:svg="http://www.w3.org/2000/svg"
   xmlns:rdf="http://www.w3.org/1999/02/22-rdf-syntax-ns#"
   xmlns:cc="http://creativecommons.org/ns#"
   xmlns:dc="http://purl.org/dc/elements/1.1/">
  <metadata
     id="metadata10">
    <rdf:RDF>
      <cc:Work
         rdf:about="">
        <dc:format>image/svg+xml</dc:format>
        <dc:type
           rdf:resource="http://purl.org/dc/dcmitype/StillImage" />
      </cc:Work>
    </rdf:RDF>
  </metadata>
  <defs
     id="defs8" />
  <sodipodi:namedview
     pagecolor="#ffffff"
     bordercolor="#666666"
     borderopacity="1"
     objecttolerance="10"
     gridtolerance="10"
     guidetolerance="10"
     inkscape:pageopacity="0"
     inkscape:pageshadow="2"
     inkscape:window-width="1920"
     inkscape:window-height="997"
     id="namedview6"
     showgrid="false"
     inkscape:zoom="27.75"
     inkscape:cx="2.972973"
     inkscape:cy="11.54955"
     inkscape:window-x="0"
     inkscape:window-y="24"
     inkscape:window-maximized="1"
     inkscape:current-layer="svg4"
     inkscape:document-rotation="0"
     inkscape:pagecheckerboard="0" />
  <circle
     style="opacity:1;fill:#808080;fill-opacity:1;stroke-width:1.40392"
     id="path1534"
     cx="12"
     cy="12"
     r="9" />
  <circle
     style="fill:#808080;fill-opacity:1;stroke-width:1.55991"
     id="path1534-3"
     cx="12"
     cy="12"
     r="10" />
  <path
     id="path862"
     style="fill:#000000;fill-opacity:1;stroke-width:1.55992;opacity:0.3"
     d="M 12,2 A 10,10 0 0 0 2,12 10,10 0 0 0 12,22 10,10 0 0 0 22,12 10,10 0 0 0 12,2 Z m 0,1 a 9,9 0 0 1 0.470703,0.011719 9,9 0 0 1 0.470702,0.03711 9,9 0 0 1 0.466798,0.0625 9,9 0 0 1 0.462892,0.085937 9,9 0 0 1 0.458983,0.1093755 9,9 0 0 1 0.451173,0.1347655 9,9 0 0 1 0.443358,0.15625 9,9 0 0 1 0.435547,0.1796878 9,9 0 0 1 0.425782,0.2031248 9,9 0 0 1 0.414062,0.2246092 9,9 0 0 1 0.402344,0.2460938 9,9 0 0 1 0.388672,0.2675781 9,9 0 0 1 0.373046,0.2871095 9,9 0 0 1 0.357422,0.3066406 9,9 0 0 1 0.341797,0.3242188 9,9 0 0 1 0.324219,0.3417968 9,9 0 0 1 0.306641,0.3574219 9,9 0 0 1 0.28711,0.3730469 9,9 0 0 1 0.267576,0.3886717 9,9 0 0 1 0.246095,0.4023438 9,9 0 0 1 0.22461,0.4140628 9,9 0 0 1 0.203124,0.4257812 9,9 0 0 1 0.179688,0.435547 9,9 0 0 1 0.156251,0.4433592 9,9 0 0 1 0.134764,0.4511721 9,9 0 0 1 0.109378,0.458983 9,9 0 0 1 0.08595,0.462892 9,9 0 0 1 0.06249,0.466798 9,9 0 0 1 0.03712,0.470702 9,9 0 0 1 0.01173,0.470703 9,9 0 0 1 -0.111329,1.408203 9,9 0 0 1 -0.330078,1.373048 9,9 0 0 1 -0.539062,1.304687 9,9 0 0 1 -0.738281,1.205078 9,9 0 0 1 -0.917969,1.072265 9,9 0 0 1 -1.072265,0.91797 9,9 0 0 1 -1.205078,0.738281 9,9 0 0 1 -1.304688,0.539063 9,9 0 0 1 -1.373048,0.330078 A 9,9 0 0 1 12.000004,21 9,9 0 0 1 10.591801,20.888673 9,9 0 0 1 9.218754,20.558595 9,9 0 0 1 7.9140666,20.019532 9,9 0 0 1 6.7089884,19.281251 9,9 0 0 1 5.6367228,18.363281 9,9 0 0 1 4.718754,17.291016 9,9 0 0 1 3.9804727,16.085938 9,9 0 0 1 3.4414102,14.781251 9,9 0 0 1 3.1113321,13.408203 9,9 0 0 1 3.000004,12 9,9 0 0 1 3.1113321,10.591797 9,9 0 0 1 3.4414102,9.2187501 9,9 0 0 1 3.9804727,7.9140626 9,9 0 0 1 4.718754,6.7089844 9,9 0 0 1 5.6367228,5.6367188 9,9 0 0 1 6.7089884,4.71875 9,9 0 0 1 7.9140666,3.9804687 9,9 0 0 1 9.218754,3.4414062 9,9 0 0 1 10.591801,3.1113281 9,9 0 0 1 12.000004,3 Z" />
</svg>
