<?xml version="1.0" encoding="UTF-8" standalone="no"?>
<svg
   width="24"
   height="24"
   viewBox="0 0 24 24"
   version="1.1"
   id="svg4"
   sodipodi:docname="osx.svg"
   inkscape:version="1.1.1 (3bf5ae0d25, 2021-09-20)"
   xmlns:inkscape="http://www.inkscape.org/namespaces/inkscape"
   xmlns:sodipodi="http://sodipodi.sourceforge.net/DTD/sodipodi-0.dtd"
   xmlns="http://www.w3.org/2000/svg"
   xmlns:svg="http://www.w3.org/2000/svg"
   xmlns:rdf="http://www.w3.org/1999/02/22-rdf-syntax-ns#"
   xmlns:cc="http://creativecommons.org/ns#"
   xmlns:dc="http://purl.org/dc/elements/1.1/">
  <metadata
     id="metadata10">
    <rdf:RDF>
      <cc:Work
         rdf:about="">
        <dc:format>image/svg+xml</dc:format>
        <dc:type
           rdf:resource="http://purl.org/dc/dcmitype/StillImage" />
      </cc:Work>
    </rdf:RDF>
  </metadata>
  <defs
     id="defs8" />
  <sodipodi:namedview
     pagecolor="#ffffff"
     bordercolor="#666666"
     borderopacity="1"
     objecttolerance="10"
     gridtolerance="10"
     guidetolerance="10"
     inkscape:pageopacity="0"
     inkscape:pageshadow="2"
     inkscape:window-width="1920"
     inkscape:window-height="992"
     id="namedview6"
     showgrid="false"
     inkscape:zoom="27.75"
     inkscape:cx="12.252252"
     inkscape:cy="14.288288"
     inkscape:window-x="0"
     inkscape:window-y="0"
     inkscape:window-maximized="1"
     inkscape:current-layer="svg4"
     inkscape:document-rotation="0"
     inkscape:pagecheckerboard="0" />
  <path
     id="rect845-3"
     style="fill:#808080;fill-opacity:1;stroke-width:6.06194"
     d="M 12,3 C 11.844188,3 11.690198,3.00324 11.536377,3.010986 11.382553,3.018726 11.23099,3.030834 11.079346,3.046142 10.927704,3.06145 10.775989,3.080585 10.626709,3.103271 10.47743,3.125956 10.329594,3.1525 10.182862,3.182373 10.036132,3.212247 9.891801,3.244373 9.747803,3.28125 9.603803,3.318126 9.45822,3.360599 9.317139,3.4042969 9.176066,3.447993 9.03763,3.4945928 8.8996582,3.5449219 8.7616882,3.595251 8.6256507,3.6485458 8.4909668,3.7053222 8.356283,3.7620965 8.2222709,3.8224585 8.0910644,3.8854981 7.9598602,3.9485386 7.8318914,4.0141361 7.7043457,4.0832519 7.5768022,4.1523663 7.450112,4.2257763 7.326416,4.3007812 7.2027177,4.3757872 7.0813306,4.4507846 6.96167,4.5314941 6.8420082,4.612205 6.7211559,4.6957537 6.6057129,4.7819824 6.4902699,4.8682114 6.3805687,4.958487 6.2695312,5.0500488 6.1584937,5.1416182 6.0485862,5.238984 5.9421387,5.3356934 5.8356912,5.4324018 5.7317966,5.5284556 5.6301269,5.6301269 5.5284607,5.7317988 5.432404,5.8356913 5.3356934,5.9421387 5.2389884,6.0485862 5.1416114,6.1584933 5.0500488,6.2695312 4.9584738,6.3805687 4.8682103,6.4902699 4.7819824,6.6057129 4.6957512,6.7211557 4.6122039,6.8420072 4.5314941,6.96167 4.4507979,7.0813327 4.375785,7.2027197 4.3007812,7.326416 4.2257663,7.4501119 4.1523663,7.5768024 4.0832519,7.7043457 4.0141432,7.831891 3.9485352,7.9598584 3.8854981,8.0910644 3.8224531,8.2222696 3.7621032,8.3562853 3.7053222,8.4909668 3.6485435,8.6256508 3.5952611,8.761682 3.5449219,8.8996582 3.4945779,9.037627 3.4479919,9.17606 3.4042969,9.317139 3.3605909,9.458214 3.3181219,9.603803 3.28125,9.747803 c -0.036866,0.144 -0.069008,0.288325 -0.098877,0.435059 -0.02988,0.146729 -0.056422,0.294565 -0.079102,0.443847 -0.02268,0.14928 -0.041806,0.300996 -0.057129,0.452637 C 3.030831,11.230993 3.018737,11.382554 3.010986,11.536377 3.0033363,11.690198 3,11.84419 3,12 c 0,0.155811 0.00322,0.309804 0.010986,0.463623 0.00765,0.153824 0.019856,0.305385 0.035156,0.457031 0.015311,0.151642 0.034449,0.303357 0.057129,0.452637 0.02268,0.149281 0.049222,0.297114 0.079102,0.443847 0.02988,0.146732 0.061999,0.291061 0.098877,0.435059 0.036866,0.144 0.079346,0.289584 0.1230469,0.430665 0.043695,0.141074 0.090305,0.279506 0.140625,0.417479 0.050344,0.137969 0.103625,0.274009 0.1604003,0.408693 0.056779,0.134685 0.1171331,0.268692 0.1801759,0.399901 0.063034,0.131204 0.1286406,0.259174 0.1977538,0.386719 0.069109,0.127543 0.1425245,0.254233 0.2175293,0.37793 0.075015,0.123685 0.1500032,0.245085 0.2307129,0.364746 0.080696,0.119649 0.1642605,0.240511 0.2504883,0.355957 0.086231,0.115444 0.176506,0.225142 0.2680664,0.336182 0.091575,0.111049 0.1889362,0.220944 0.2856446,0.327393 0.096705,0.106436 0.1927628,0.21034 0.2944335,0.312011 0.1016663,0.101666 0.2055654,0.197723 0.3120118,0.294434 0.1064475,0.09671 0.216355,0.194081 0.3273925,0.285644 0.1110375,0.09156 0.2207387,0.181839 0.3361817,0.268067 0.1154441,0.08622 0.2362942,0.169779 0.3559571,0.250488 0.1196617,0.08072 0.24105,0.155707 0.364746,0.230713 0.1236982,0.07502 0.2503862,0.14842 0.3779297,0.217529 0.1275424,0.06912 0.2555122,0.134713 0.3867187,0.197754 0.1312043,0.06303 0.2652197,0.123394 0.3999024,0.180176 0.134685,0.05678 0.2707146,0.11006 0.4086914,0.1604 0.1379698,0.05032 0.2764018,0.09693 0.4174808,0.140625 0.141076,0.04369 0.286665,0.08618 0.430664,0.123047 0.144,0.03689 0.288325,0.069 0.435059,0.09888 0.146731,0.02987 0.294565,0.05642 0.443847,0.0791 0.14928,0.02268 0.300994,0.04183 0.452637,0.05713 0.151646,0.01531 0.303208,0.02741 0.457031,0.03516 C 11.6902,20.996663 11.844189,21 12,21 c 0.155811,0 0.309801,-0.0033 0.463623,-0.01099 0.153823,-0.0076 0.305385,-0.01986 0.457031,-0.03516 0.151641,-0.0153 0.303357,-0.03446 0.452637,-0.05713 0.149281,-0.02268 0.297114,-0.04922 0.443847,-0.0791 0.146728,-0.02988 0.291061,-0.06199 0.435059,-0.09888 0.143999,-0.03689 0.289585,-0.07934 0.430665,-0.123047 0.141074,-0.04369 0.279508,-0.0903 0.417479,-0.140625 0.13797,-0.05032 0.274009,-0.103625 0.408693,-0.1604 0.134685,-0.05678 0.268693,-0.117135 0.399901,-0.180176 0.131205,-0.06303 0.259174,-0.128631 0.386719,-0.197754 0.127543,-0.06912 0.254235,-0.142524 0.37793,-0.217529 0.123685,-0.07502 0.245085,-0.150004 0.364746,-0.230713 0.119649,-0.08072 0.240514,-0.164261 0.355957,-0.250488 0.115444,-0.08623 0.225142,-0.176506 0.336182,-0.268067 0.111049,-0.09156 0.220947,-0.188933 0.327393,-0.285644 0.106436,-0.09671 0.21034,-0.192761 0.312011,-0.294434 0.101666,-0.101667 0.197724,-0.205564 0.294434,-0.312011 0.09671,-0.106459 0.194082,-0.216356 0.285644,-0.327393 0.09156,-0.111049 0.181839,-0.220739 0.268067,-0.336182 0.08622,-0.115444 0.169777,-0.236294 0.250488,-0.355957 0.08072,-0.119672 0.155707,-0.24105 0.230713,-0.364746 0.07502,-0.123686 0.148419,-0.250387 0.217529,-0.37793 0.06912,-0.127544 0.134713,-0.255509 0.197754,-0.386719 0.06304,-0.131203 0.123394,-0.265218 0.180176,-0.399901 0.05678,-0.134685 0.110061,-0.270716 0.1604,-0.408693 0.05032,-0.13797 0.09693,-0.276402 0.140625,-0.417479 0.04371,-0.141075 0.08619,-0.286665 0.123047,-0.430665 0.03689,-0.143998 0.069,-0.288327 0.09888,-0.435059 0.02987,-0.14673 0.05642,-0.294565 0.0791,-0.443847 0.02268,-0.149281 0.04183,-0.300995 0.05713,-0.452637 0.01531,-0.151646 0.02741,-0.303208 0.03516,-0.457031 C 20.996663,12.309672 21,12.155811 21,12 21,11.84419 20.9967,11.690198 20.98901,11.536377 20.98141,11.382554 20.96915,11.230993 20.95385,11.079346 20.93855,10.927705 20.91939,10.775989 20.89672,10.626709 20.87408,10.477467 20.8475,10.329596 20.81762,10.182862 20.78774,10.036132 20.75563,9.891802 20.71874,9.747803 20.68185,9.603803 20.6394,9.458218 20.595693,9.317139 20.551993,9.17604 20.505393,9.037629 20.455068,8.8996582 20.404759,8.7616883 20.351453,8.6256499 20.294678,8.4909668 20.237859,8.3562818 20.177546,8.2222707 20.114502,8.0910644 20.051464,7.9598595 19.98587,7.8318912 19.916748,7.7043457 19.847626,7.5768014 19.774224,7.4501119 19.699219,7.326416 19.62421,7.2027202 19.549212,7.0813322 19.468506,6.96167 19.387786,6.8420075 19.304245,6.7211561 19.218018,6.6057129 19.131788,6.49027 19.041511,6.3805695 18.949951,6.2695312 18.858297,6.1584926 18.761016,6.0485866 18.664307,5.9421387 18.567602,5.8356923 18.471544,5.7317982 18.369873,5.6301269 18.268206,5.528455 18.164307,5.4324028 18.057862,5.3356934 17.951414,5.2389839 17.841505,5.1416105 17.730469,5.0500488 17.619431,4.9584873 17.509729,4.8682106 17.394287,4.7819824 17.278843,4.6957534 17.157991,4.6122039 17.03833,4.5314941 16.918669,4.4507855 16.797279,4.3757863 16.673584,4.3007812 16.549885,4.2257764 16.423196,4.1523665 16.295654,4.0832519 16.16811,4.0141375 16.040142,3.9485367 15.908935,3.8854981 15.777726,3.8224587 15.643715,3.7620992 15.509034,3.7053222 15.37435,3.6485457 15.238318,3.5952521 15.100341,3.5449219 14.962369,3.4945905 14.823942,3.447994 14.682862,3.4042969 14.541781,3.3605996 14.396197,3.3181272 14.252197,3.28125 c -0.144,-0.036878 -0.288325,-0.069005 -0.435059,-0.098877 -0.146727,-0.029876 -0.294566,-0.05642 -0.443847,-0.079102 -0.14928,-0.022684 -0.300995,-0.04182 -0.452637,-0.057129 C 12.76901,3.0308336 12.617447,3.0187342 12.463623,3.0109863 12.309803,3.0032351 12.155811,3 12,3 Z" />
  <path
     id="path935"
     style="fill:#000000;fill-opacity:1;stroke-width:5.38839;opacity:0.2"
     d="M 12 3 C 11.844188 3 11.688976 3.0020186 11.535156 3.0097656 C 11.381331 3.0175056 11.22977 3.0296139 11.078125 3.0449219 C 10.926483 3.0602299 10.776233 3.0808306 10.626953 3.1035156 C 10.477674 3.1261996 10.328374 3.1537208 10.181641 3.1835938 C 10.034912 3.2134687 9.8920451 3.244373 9.7480469 3.28125 C 9.6040469 3.318126 9.4594407 3.360599 9.3183594 3.4042969 C 9.1772862 3.447993 9.0364093 3.4945927 8.8984375 3.5449219 C 8.7604675 3.5952508 8.6268707 3.6483016 8.4921875 3.7050781 C 8.3575021 3.7618522 8.221051 3.8236792 8.0898438 3.8867188 C 7.9586392 3.9497587 7.8306704 4.0129154 7.703125 4.0820312 C 7.5755821 4.1511461 7.4498679 4.2257762 7.3261719 4.3007812 C 7.2024733 4.3757873 7.082552 4.4505404 6.9628906 4.53125 C 6.8432293 4.6119608 6.7209118 4.6969743 6.6054688 4.7832031 C 6.4900244 4.8694319 6.3805694 4.9572662 6.2695312 5.0488281 C 6.1584969 5.1403967 6.0498076 5.2392281 5.9433594 5.3359375 C 5.8369152 5.4326463 5.7305767 5.5272349 5.6289062 5.6289062 C 5.5272449 5.730578 5.4326478 5.836912 5.3359375 5.9433594 C 5.2392262 6.0498076 5.1403903 6.1584932 5.0488281 6.2695312 C 4.9572596 6.3805694 4.8694308 6.4900257 4.7832031 6.6054688 C 4.6969701 6.7209117 4.6119594 6.8432277 4.53125 6.9628906 C 4.4505457 7.0825534 4.375786 7.2024755 4.3007812 7.3261719 C 4.2257726 7.4498679 4.151146 7.5755816 4.0820312 7.703125 C 4.0129241 7.8306704 3.949756 7.9586376 3.8867188 8.0898438 C 3.8236801 8.221049 3.7618591 8.3575059 3.7050781 8.4921875 C 3.648301 8.6268716 3.5952589 8.7604612 3.5449219 8.8984375 C 3.4945861 9.0364066 3.447992 9.1772808 3.4042969 9.3183594 C 3.3605952 9.4594353 3.3181241 9.6040469 3.28125 9.7480469 C 3.244376 9.8920469 3.2134617 10.034907 3.1835938 10.181641 C 3.1537137 10.32837 3.1261956 10.477671 3.1035156 10.626953 C 3.0808356 10.776233 3.0602349 10.926484 3.0449219 11.078125 C 3.0296099 11.229771 3.0175186 11.381333 3.0097656 11.535156 C 3.0020519 11.688977 3 11.84419 3 12 C 3 12.155812 3.0020486 12.311024 3.0097656 12.464844 C 3.0174756 12.618668 3.0296209 12.77023 3.0449219 12.921875 C 3.0602349 13.073517 3.0808356 13.223767 3.1035156 13.373047 C 3.1261956 13.522327 3.1537138 13.671626 3.1835938 13.818359 C 3.2134737 13.965091 3.244375 14.107955 3.28125 14.251953 C 3.318124 14.395953 3.3605949 14.540561 3.4042969 14.681641 C 3.4479849 14.822715 3.4945929 14.963589 3.5449219 15.101562 C 3.5952579 15.239532 3.6482993 15.373129 3.7050781 15.507812 C 3.7618551 15.642497 3.8236763 15.778947 3.8867188 15.910156 C 3.9497577 16.04136 4.0129191 16.16933 4.0820312 16.296875 C 4.1511382 16.424418 4.2257764 16.550131 4.3007812 16.673828 C 4.3757893 16.797513 4.4505405 16.917447 4.53125 17.037109 C 4.611954 17.156757 4.6969751 17.279085 4.7832031 17.394531 C 4.8694361 17.509976 4.9572672 17.619429 5.0488281 17.730469 C 5.1403961 17.841518 5.2392289 17.950192 5.3359375 18.056641 C 5.4326495 18.163078 5.5272359 18.269423 5.6289062 18.371094 C 5.730568 18.472759 5.8369125 18.567352 5.9433594 18.664062 C 6.0498035 18.760773 6.1584931 18.859609 6.2695312 18.951172 C 6.3805654 19.042732 6.4900257 19.130569 6.6054688 19.216797 C 6.7209132 19.303017 6.8432279 19.388041 6.9628906 19.46875 C 7.082552 19.54947 7.2024759 19.624213 7.3261719 19.699219 C 7.4498704 19.774229 7.5755821 19.84886 7.703125 19.917969 C 7.830668 19.987089 7.9586381 20.050239 8.0898438 20.113281 C 8.2210484 20.176321 8.3575051 20.23814 8.4921875 20.294922 C 8.6268725 20.351702 8.7604612 20.404737 8.8984375 20.455078 C 9.0364075 20.505398 9.1772817 20.552008 9.3183594 20.595703 C 9.4594353 20.639403 9.6040478 20.681883 9.7480469 20.71875 C 9.8920469 20.75564 10.034907 20.786526 10.181641 20.816406 C 10.328373 20.846276 10.477671 20.873804 10.626953 20.896484 C 10.776233 20.919164 10.926482 20.939778 11.078125 20.955078 C 11.229771 20.970388 11.381332 20.982484 11.535156 20.990234 C 11.688978 20.997964 11.844188 21 12 21 C 12.155811 21 12.311023 20.997844 12.464844 20.990234 C 12.618668 20.982534 12.770229 20.970378 12.921875 20.955078 C 13.073516 20.939778 13.223767 20.919154 13.373047 20.896484 C 13.522328 20.873804 13.671625 20.846286 13.818359 20.816406 C 13.965088 20.786526 14.107955 20.75564 14.251953 20.71875 C 14.395952 20.68186 14.540562 20.639409 14.681641 20.595703 C 14.822715 20.552003 14.963591 20.505403 15.101562 20.455078 C 15.239532 20.404758 15.373129 20.351698 15.507812 20.294922 C 15.642497 20.238142 15.778948 20.176322 15.910156 20.113281 C 16.041361 20.050241 16.16933 19.987093 16.296875 19.917969 C 16.424418 19.848849 16.550133 19.774224 16.673828 19.699219 C 16.797513 19.624199 16.917447 19.549459 17.037109 19.46875 C 17.156757 19.38803 17.279088 19.303023 17.394531 19.216797 C 17.509976 19.130567 17.619429 19.042733 17.730469 18.951172 C 17.841518 18.859612 17.950195 18.760774 18.056641 18.664062 C 18.163078 18.567352 18.269423 18.472767 18.371094 18.371094 C 18.472759 18.269428 18.567353 18.163089 18.664062 18.056641 C 18.760773 17.950182 18.85961 17.841506 18.951172 17.730469 C 19.042732 17.61942 19.130569 17.509974 19.216797 17.394531 C 19.303017 17.279087 19.388039 17.156772 19.46875 17.037109 C 19.54947 16.917436 19.624213 16.797524 19.699219 16.673828 C 19.774229 16.550142 19.84886 16.424418 19.917969 16.296875 C 19.987089 16.169331 20.050239 16.041366 20.113281 15.910156 C 20.176321 15.778953 20.23814 15.642496 20.294922 15.507812 C 20.351702 15.373128 20.404737 15.23954 20.455078 15.101562 C 20.505398 14.963593 20.552008 14.822718 20.595703 14.681641 C 20.639403 14.540566 20.681883 14.395953 20.71875 14.251953 C 20.75564 14.107955 20.786526 13.965091 20.816406 13.818359 C 20.846276 13.671628 20.873804 13.522329 20.896484 13.373047 C 20.919164 13.223767 20.939778 13.073517 20.955078 12.921875 C 20.970388 12.770229 20.982494 12.618668 20.990234 12.464844 C 20.997964 12.310894 21 12.155812 21 12 C 21 11.84419 20.997844 11.688977 20.990234 11.535156 C 20.982534 11.381333 20.970378 11.229771 20.955078 11.078125 C 20.939778 10.926484 20.919154 10.776233 20.896484 10.626953 C 20.873804 10.477672 20.846286 10.328375 20.816406 10.181641 C 20.786526 10.034912 20.75564 9.8920451 20.71875 9.7480469 C 20.68186 9.6040469 20.639409 9.4594389 20.595703 9.3183594 C 20.552009 9.177261 20.505399 9.0364084 20.455078 8.8984375 C 20.404759 8.7604675 20.351698 8.6268707 20.294922 8.4921875 C 20.238103 8.3575024 20.176325 8.22105 20.113281 8.0898438 C 20.050243 7.9586387 19.987091 7.8306706 19.917969 7.703125 C 19.848848 7.5755806 19.774224 7.4498679 19.699219 7.3261719 C 19.624211 7.2024761 19.549457 7.0825529 19.46875 6.9628906 C 19.388033 6.843228 19.303024 6.7209122 19.216797 6.6054688 C 19.130565 6.4900257 19.042733 6.3805696 18.951172 6.2695312 C 18.859526 6.1584931 18.760773 6.0498075 18.664062 5.9433594 C 18.567352 5.8369126 18.472766 5.7305777 18.371094 5.6289062 C 18.269432 5.5272346 18.163087 5.432647 18.056641 5.3359375 C 17.950196 5.2392288 17.841506 5.1403899 17.730469 5.0488281 C 17.619435 4.957266 17.509973 4.8694313 17.394531 4.7832031 C 17.279087 4.6969741 17.15677 4.6119598 17.037109 4.53125 C 16.917447 4.4505405 16.797523 4.3757864 16.673828 4.3007812 C 16.550129 4.2257765 16.424418 4.1511458 16.296875 4.0820312 C 16.169332 4.0129177 16.041363 3.9497575 15.910156 3.8867188 C 15.778947 3.8236801 15.642494 3.7618551 15.507812 3.7050781 C 15.373128 3.648301 15.239539 3.5952524 15.101562 3.5449219 C 14.963589 3.4945914 14.822722 3.4479942 14.681641 3.4042969 C 14.540561 3.3605994 14.395953 3.3181281 14.251953 3.28125 C 14.107953 3.2443719 13.965092 3.2134674 13.818359 3.1835938 C 13.671631 3.1537189 13.522328 3.1261982 13.373047 3.1035156 C 13.223767 3.0808305 13.073517 3.0602298 12.921875 3.0449219 C 12.77023 3.029613 12.618668 3.0175134 12.464844 3.0097656 C 12.311024 3.0020128 12.155812 3 12 3 z M 12 4 C 12.138499 4 12.27538 4.0028756 12.412109 4.0097656 C 12.548842 4.0166526 12.683564 4.0274076 12.818359 4.0410156 C 12.953152 4.0546236 13.08801 4.0716329 13.220703 4.0917969 C 13.353397 4.1119579 13.48481 4.1355534 13.615234 4.1621094 C 13.745664 4.1886624 13.873953 4.21722 14.001953 4.25 C 14.129953 4.2827797 14.259361 4.320533 14.384766 4.359375 C 14.510171 4.3982169 14.633217 4.439636 14.755859 4.484375 C 14.878505 4.529113 14.999422 4.5764851 15.119141 4.6269531 C 15.238858 4.6774215 15.357979 4.7310744 15.474609 4.7871094 C 15.591237 4.8431437 15.704987 4.9014556 15.818359 4.9628906 C 15.93173 5.0243258 16.044342 5.089579 16.154297 5.15625 C 16.264248 5.2229212 16.37215 5.2895871 16.478516 5.3613281 C 16.584881 5.4330701 16.692305 5.5073364 16.794922 5.5839844 C 16.897537 5.6606316 16.99505 5.7408776 17.09375 5.8222656 C 17.192449 5.9036538 17.290146 5.9902079 17.384766 6.0761719 C 17.479384 6.1621358 17.571739 6.2475156 17.662109 6.3378906 C 17.752484 6.4282651 17.837868 6.5206154 17.923828 6.6152344 C 18.009792 6.7098548 18.096264 6.807549 18.177734 6.90625 C 18.259121 7.0049507 18.339367 7.1024622 18.416016 7.2050781 C 18.492662 7.3076943 18.566921 7.4151178 18.638672 7.5214844 C 18.710411 7.6278508 18.777076 7.7357513 18.84375 7.8457031 C 18.910421 7.955655 18.975668 8.0682679 19.037109 8.1816406 C 19.098551 8.2950144 19.156857 8.408764 19.212891 8.5253906 C 19.26893 8.6420184 19.322541 8.7611394 19.373047 8.8808594 C 19.423514 9.0005777 19.470897 9.1215007 19.515625 9.2441406 C 19.560355 9.3667813 19.60178 9.4898137 19.640625 9.6152344 C 19.679474 9.7406383 19.717213 9.870047 19.75 9.9980469 C 19.78279 10.126046 19.811331 10.25434 19.837891 10.384766 C 19.864451 10.515196 19.888083 10.646637 19.908203 10.779297 C 19.928353 10.91199 19.945384 11.046849 19.958984 11.181641 C 19.972584 11.316438 19.983434 11.451159 19.990234 11.587891 C 19.997034 11.72462 20 11.861502 20 12 C 20 12.138499 19.997034 12.275264 19.990234 12.412109 C 19.983344 12.548841 19.972594 12.683563 19.958984 12.818359 C 19.945384 12.953152 19.928363 13.088009 19.908203 13.220703 C 19.888043 13.353398 19.864441 13.484807 19.837891 13.615234 C 19.811331 13.745662 19.78279 13.873955 19.75 14.001953 C 19.717235 14.129953 19.679475 14.259366 19.640625 14.384766 C 19.601785 14.510168 19.560355 14.633219 19.515625 14.755859 C 19.470879 14.878505 19.423517 14.999421 19.373047 15.119141 C 19.322574 15.23886 19.268931 15.357984 19.212891 15.474609 C 19.156854 15.59124 19.098549 15.704987 19.037109 15.818359 C 18.975678 15.931731 18.91043 16.044354 18.84375 16.154297 C 18.777078 16.264249 18.710422 16.37214 18.638672 16.478516 C 18.566929 16.584883 18.492656 16.692305 18.416016 16.794922 C 18.339369 16.897538 18.259124 16.99504 18.177734 17.09375 C 18.096346 17.19245 18.009788 17.290136 17.923828 17.384766 C 17.837864 17.479386 17.752479 17.571739 17.662109 17.662109 C 17.571735 17.752485 17.479376 17.837868 17.384766 17.923828 C 17.290148 18.009794 17.19246 18.096344 17.09375 18.177734 C 16.995048 18.259122 16.897539 18.339366 16.794922 18.416016 C 16.692306 18.492662 16.58487 18.566922 16.478516 18.638672 C 16.37215 18.710413 16.264239 18.77707 16.154297 18.84375 C 16.044346 18.910421 15.931731 18.975669 15.818359 19.037109 C 15.704986 19.098552 15.591236 19.156861 15.474609 19.212891 C 15.35798 19.268927 15.238861 19.322577 15.119141 19.373047 C 14.999422 19.423514 14.878499 19.470895 14.755859 19.515625 C 14.633218 19.560355 14.510165 19.601785 14.384766 19.640625 C 14.259362 19.679479 14.129952 19.71721 14.001953 19.75 C 13.873955 19.78279 13.745659 19.811331 13.615234 19.837891 C 13.484804 19.864451 13.353397 19.888043 13.220703 19.908203 C 13.08801 19.928353 12.953151 19.945384 12.818359 19.958984 C 12.683563 19.972584 12.548841 19.983434 12.412109 19.990234 C 12.275379 19.997034 12.138499 20 12 20 C 11.861501 20 11.724622 19.997034 11.587891 19.990234 C 11.451159 19.983344 11.316437 19.972594 11.181641 19.958984 C 11.046847 19.945384 10.91199 19.928363 10.779297 19.908203 C 10.646602 19.888043 10.515194 19.864441 10.384766 19.837891 C 10.254336 19.811331 10.126047 19.78279 9.9980469 19.75 C 9.8700479 19.717225 9.7406354 19.679465 9.6152344 19.640625 C 9.4898314 19.601785 9.3667806 19.560355 9.2441406 19.515625 C 9.1214946 19.470878 9.0005794 19.423517 8.8808594 19.373047 C 8.7611414 19.322574 8.6420166 19.268921 8.5253906 19.212891 C 8.4087626 19.156854 8.2950116 19.098549 8.1816406 19.037109 C 8.0682686 18.975679 7.9556571 18.91043 7.8457031 18.84375 C 7.7357511 18.777078 7.6278504 18.710422 7.5214844 18.638672 C 7.4151174 18.566931 7.3076951 18.492656 7.2050781 18.416016 C 7.1024621 18.339369 7.00495 18.259124 6.90625 18.177734 C 6.80755 18.096345 6.7098544 18.009788 6.6152344 17.923828 C 6.5206154 17.837863 6.4282606 17.752479 6.3378906 17.662109 C 6.2475166 17.571735 6.1621319 17.479376 6.0761719 17.384766 C 5.9902089 17.290145 5.9036656 17.19246 5.8222656 17.09375 C 5.7408786 16.995048 5.6606344 16.897539 5.5839844 16.794922 C 5.5073374 16.692303 5.4330581 16.58487 5.3613281 16.478516 C 5.2895861 16.37215 5.22293 16.264239 5.15625 16.154297 C 5.089579 16.044344 5.0243206 15.931731 4.9628906 15.818359 C 4.9014566 15.704986 4.8431394 15.591235 4.7871094 15.474609 C 4.7310714 15.357979 4.6774231 15.238861 4.6269531 15.119141 C 4.5764861 14.999422 4.529125 14.878498 4.484375 14.755859 C 4.439646 14.633216 4.398215 14.510165 4.359375 14.384766 C 4.32053 14.259361 4.28277 14.129953 4.25 14.001953 C 4.21722 13.873955 4.1886694 13.745662 4.1621094 13.615234 C 4.1355494 13.484804 4.1119569 13.353397 4.0917969 13.220703 C 4.0716369 13.08801 4.0546256 12.953152 4.0410156 12.818359 C 4.0274156 12.683563 4.0165656 12.548842 4.0097656 12.412109 C 4.0028656 12.275381 4 12.138499 4 12 C 4 11.861502 4.0029656 11.72462 4.0097656 11.587891 C 4.0166556 11.451159 4.0274056 11.316438 4.0410156 11.181641 C 4.0546356 11.046849 4.0716369 10.91199 4.0917969 10.779297 C 4.1119569 10.646602 4.1355494 10.515192 4.1621094 10.384766 C 4.1886594 10.254336 4.21723 10.126047 4.25 9.9980469 C 4.282775 9.870047 4.320525 9.7406351 4.359375 9.6152344 C 4.398215 9.4898313 4.439625 9.3667797 4.484375 9.2441406 C 4.529121 9.1214951 4.5764831 9.0005785 4.6269531 8.8808594 C 4.6774251 8.7611425 4.7310694 8.6420174 4.7871094 8.5253906 C 4.8431424 8.408763 4.9014606 8.2950142 4.9628906 8.1816406 C 5.0243256 8.0682688 5.08957 7.955655 5.15625 7.8457031 C 5.22292 7.7357508 5.2895981 7.6278513 5.3613281 7.5214844 C 5.4330701 7.4151175 5.5073344 7.307694 5.5839844 7.2050781 C 5.6606314 7.1024621 5.7408656 7.00495 5.8222656 6.90625 C 5.9036546 6.8075496 5.9902119 6.7098544 6.0761719 6.6152344 C 6.1621369 6.5206145 6.2475206 6.4282656 6.3378906 6.3378906 C 6.4282636 6.2475161 6.5206144 6.1621349 6.6152344 6.0761719 C 6.7098544 5.990208 6.80755 5.9036606 6.90625 5.8222656 C 7.00495 5.7408773 7.1024621 5.6606324 7.2050781 5.5839844 C 7.3076941 5.5073366 7.4151184 5.4330711 7.5214844 5.3613281 C 7.6278494 5.2895863 7.7357491 5.222922 7.8457031 5.15625 C 7.9556551 5.0895789 8.0682686 5.0243256 8.1816406 4.9628906 C 8.2950146 4.9014543 8.4087646 4.8431454 8.5253906 4.7871094 C 8.6420186 4.7310742 8.7611404 4.6774191 8.8808594 4.6269531 C 9.0005784 4.5764852 9.1215006 4.529112 9.2441406 4.484375 C 9.3667826 4.439638 9.4898364 4.398216 9.6152344 4.359375 C 9.7406404 4.320532 9.8700469 4.282779 9.9980469 4.25 C 10.126045 4.217221 10.25434 4.1886644 10.384766 4.1621094 C 10.515195 4.1355564 10.646604 4.1119609 10.779297 4.0917969 C 10.91199 4.0716319 11.046848 4.0546226 11.181641 4.0410156 C 11.316436 4.0274086 11.451158 4.0166456 11.587891 4.0097656 C 11.72462 4.0028756 11.8615 4 12 4 z " />
</svg>
