<?xml version="1.0" encoding="UTF-8" standalone="no"?>
<svg
   width="24"
   height="24"
   viewBox="0 0 24 24"
   version="1.1"
   id="svg4"
   sodipodi:docname="osx.svg"
   inkscape:version="1.1.2 (0a00cf5339, 2022-02-04, custom)"
   xmlns:inkscape="http://www.inkscape.org/namespaces/inkscape"
   xmlns:sodipodi="http://sodipodi.sourceforge.net/DTD/sodipodi-0.dtd"
   xmlns="http://www.w3.org/2000/svg"
   xmlns:svg="http://www.w3.org/2000/svg">
  <defs
     id="defs8" />
  <sodipodi:namedview
     id="namedview6"
     pagecolor="#ffffff"
     bordercolor="#666666"
     borderopacity="1.0"
     inkscape:pageshadow="2"
     inkscape:pageopacity="0.0"
     inkscape:pagecheckerboard="0"
     showgrid="false"
     inkscape:zoom="17.145834"
     inkscape:cx="11.606318"
     inkscape:cy="6.7071686"
     inkscape:window-width="1920"
     inkscape:window-height="991"
     inkscape:window-x="0"
     inkscape:window-y="0"
     inkscape:window-maximized="1"
     inkscape:current-layer="svg4" />
  <circle
     cx="12"
     cy="12"
     r="9"
     fill="#808080"
     id="circle2"
     style="stroke-width:4.5" />
  <path
     id="path924"
     style="stroke-width:4.5;fill:#000000;fill-opacity:1;opacity:0.3"
     d="m 12,3 a 9,9 0 0 0 -9,9 9,9 0 0 0 9,9 9,9 0 0 0 9,-9 9,9 0 0 0 -9,-9 z m 0,1 a 8,8 0 0 1 0.417969,0.011719 8,8 0 0 1 0.417969,0.03125 8,8 0 0 1 0.416015,0.054687 8,8 0 0 1 0.412109,0.078125 8,8 0 0 1 0.40625,0.097656 8,8 0 0 1 0.402344,0.1171875 8,8 0 0 1 0.394532,0.140625 8,8 0 0 1 0.386718,0.1601562 8,8 0 0 1 0.378906,0.1796876 A 8,8 0 0 1 16,5.0722656 a 8,8 0 0 1 0.357422,0.21875 8,8 0 0 1 0.345703,0.2363282 8,8 0 0 1 0.332031,0.2558593 8,8 0 0 1 0.31836,0.2714844 8,8 0 0 1 0.302734,0.2890625 8,8 0 0 1 0.289062,0.3027344 8,8 0 0 1 0.271485,0.3183594 8,8 0 0 1 0.255859,0.3320312 8,8 0 0 1 0.236328,0.3457031 A 8,8 0 0 1 18.927734,8 a 8,8 0 0 1 0.201172,0.3671875 8,8 0 0 1 0.179688,0.3789063 8,8 0 0 1 0.160156,0.3867187 8,8 0 0 1 0.140625,0.3945313 8,8 0 0 1 0.117187,0.4023437 8,8 0 0 1 0.09766,0.4062505 8,8 0 0 1 0.07813,0.412109 8,8 0 0 1 0.05469,0.416015 8,8 0 0 1 0.03125,0.417969 8,8 0 0 1 0.01171,0.417969 8,8 0 0 1 -0.09766,1.251953 8,8 0 0 1 -0.292969,1.220703 8,8 0 0 1 -0.480469,1.160156 8,8 0 0 1 -0.65625,1.070313 8,8 0 0 1 -0.816406,0.953125 8,8 0 0 1 -0.953125,0.816406 8,8 0 0 1 -1.070313,0.65625 8,8 0 0 1 -1.160158,0.480469 8,8 0 0 1 -1.220703,0.292969 A 8,8 0 0 1 12,20 8,8 0 0 1 10.748047,19.902344 8,8 0 0 1 9.527344,19.609375 8,8 0 0 1 8.367188,19.128906 8,8 0 0 1 7.296875,18.472656 8,8 0 0 1 6.34375,17.65625 8,8 0 0 1 5.5273438,16.703125 8,8 0 0 1 4.8710938,15.632812 8,8 0 0 1 4.390625,14.472656 8,8 0 0 1 4.0976562,13.251953 8,8 0 0 1 4,12 8,8 0 0 1 4.0976562,10.748047 8,8 0 0 1 4.390625,9.5273438 8,8 0 0 1 4.8710938,8.3671875 8,8 0 0 1 5.5273438,7.296875 8,8 0 0 1 6.34375,6.34375 8,8 0 0 1 7.296875,5.5273438 8,8 0 0 1 8.367188,4.8710938 8,8 0 0 1 9.527344,4.390625 8,8 0 0 1 10.748047,4.0976562 8,8 0 0 1 12,4 Z" />
</svg>
